HIERARCHY
ROOT Hips
{
	OFFSET 0.000000 0.000000 0.000000
	CHANNELS 6 Xposition Yposition Zposition Zrotation Yrotation Xrotation 
	JOINT LeftUpLeg_virtual
	{
		OFFSET 0.000000 0.000000 0.000000
		CHANNELS 3 Zrotation Yrotation Xrotation
		JOINT LeftUpLeg
		{
			OFFSET 8.479694 -4.795517 -0.379053
			CHANNELS 3 Zrotation Yrotation Xrotation
			JOINT LeftLeg
			{
				OFFSET 0.485052 -32.551468 0.112863
				CHANNELS 3 Zrotation Yrotation Xrotation
				JOINT LeftFoot
				{
					OFFSET 0.438033 -32.635670 -3.012641
					CHANNELS 3 Zrotation Yrotation Xrotation
					JOINT LeftToeBase
					{
						OFFSET 0.970169 -13.225353 11.864223
						CHANNELS 3 Zrotation Yrotation Xrotation
						End Site
						{
							OFFSET 0.000000 0.000000 0.000000
						}
					}
				}
			}
		}
	}
	JOINT RightUpLeg_virtual
	{
		OFFSET 0.000000 0.000000 0.000000
		CHANNELS 3 Zrotation Yrotation Xrotation
		JOINT RightUpLeg
		{
			OFFSET -8.479694 -4.795517 -0.379053
			CHANNELS 3 Zrotation Yrotation Xrotation
			JOINT RightLeg
			{
				OFFSET -0.484100 -32.551483 0.112903
				CHANNELS 3 Zrotation Yrotation Xrotation
				JOINT RightFoot
				{
					OFFSET -0.438985 -32.635651 -3.012681
					CHANNELS 3 Zrotation Yrotation Xrotation
					JOINT RightToeBase
					{
						OFFSET -0.970169 -13.225354 11.864223
						CHANNELS 3 Zrotation Yrotation Xrotation
						End Site
						{
							OFFSET 0.000000 0.000000 0.000000
						}
					}
				}
			}
		}
	}
	JOINT Spine_virtual
	{
		OFFSET 0.000000 0.000000 0.000000
		CHANNELS 3 Zrotation Yrotation Xrotation
		JOINT Spine
		{
			OFFSET 0.000000 7.722015 1.166203
			CHANNELS 3 Zrotation Yrotation Xrotation
			JOINT Spine1
			{
				OFFSET 0.000000 12.024086 0.248766
				CHANNELS 3 Zrotation Yrotation Xrotation
				JOINT Spine2
				{
					OFFSET -0.000000 11.503036 -0.491240
					CHANNELS 3 Zrotation Yrotation Xrotation
					JOINT Neck_virtual
					{
						OFFSET 0.000000 0.000000 0.000000
						CHANNELS 3 Zrotation Yrotation Xrotation
						JOINT Neck
						{
							OFFSET 0.000000 18.430687 -3.123054
							CHANNELS 3 Zrotation Yrotation Xrotation
							JOINT Head
							{
								OFFSET -0.000000 9.051071 1.034021
								CHANNELS 3 Zrotation Yrotation Xrotation
								End Site
								{
									OFFSET 0.000000 0.000000 0.000000
								}
							}
						}
					}
					JOINT LeftShoulder_virtual
					{
						OFFSET 0.000000 0.000000 0.000000
						CHANNELS 3 Zrotation Yrotation Xrotation
						JOINT LeftShoulder
						{
							OFFSET 6.197824 13.665230 -4.064723
							CHANNELS 3 Zrotation Yrotation Xrotation
							JOINT LeftArm
							{
								OFFSET 7.778132 -0.187073 -1.709282
								CHANNELS 3 Zrotation Yrotation Xrotation
								JOINT LeftForeArm
								{
									OFFSET 21.954697 0.000000 -2.041093
									CHANNELS 3 Zrotation Yrotation Xrotation
									JOINT LeftHand
									{
										OFFSET 22.992908 0.000000 -0.870901
										CHANNELS 3 Zrotation Yrotation Xrotation
										End Site
										{
											OFFSET 0.000000 0.000000 0.000000
										}
									}
								}
							}
						}
					}
					JOINT RightShoulder_virtual
					{
						OFFSET 0.000000 0.000000 0.000000
						CHANNELS 3 Zrotation Yrotation Xrotation
						JOINT RightShoulder
						{
							OFFSET -6.197824 13.665230 -4.064723
							CHANNELS 3 Zrotation Yrotation Xrotation
							JOINT RightArm
							{
								OFFSET -7.778132 -0.187073 -1.709282
								CHANNELS 3 Zrotation Yrotation Xrotation
								JOINT RightForeArm
								{
									OFFSET -21.954697 0.000000 -2.041093
									CHANNELS 3 Zrotation Yrotation Xrotation
									JOINT RightHand
									{
										OFFSET -22.992908 0.000000 -0.870901
										CHANNELS 3 Zrotation Yrotation Xrotation
										End Site
										{
											OFFSET 0.000000 0.000000 0.000000
										}
									}
								}
							}
						}
					}
				}
			}
		}
	}
}
MOTION
Frames: 9
Frame Time: 0.033333
40.167213 79.201599 5.025436 -179.328270 -22.419280 179.512234 -5.921308 -0.393546 8.594936 15.160512 -0.960927 -29.521321 2.922105 1.902716 44.856554 0.675753 -9.607113 -12.097567 0.000000 0.000000 0.000000 -1.310510 -3.251345 7.264486 4.613714 9.770951 -13.945183 0.802671 6.582465 27.474912 8.119051 6.051672 -20.712663 0.000000 0.000000 0.000000 -0.891123 1.146267 -2.535019 1.980715 -0.629686 0.138931 -1.734801 -0.824236 7.826658 -0.118315 -0.084619 -0.067093 -2.218916 1.122278 8.329663 -3.005633 -4.405745 -4.336666 0.000000 0.000000 0.000000 -0.395792 1.444610 5.804508 16.746084 9.832158 4.883300 -44.368929 -8.318612 -41.626786 -177.240089 -77.406322 -165.826898 0.000000 0.000000 0.000000 -5.540871 3.380527 5.015559 23.103502 0.515905 2.048969 32.562295 -16.212224 52.186808 -61.429779 85.854139 -61.251108 0.000000 0.000000 0.000000 
40.252113 79.149254 5.096336 -179.538831 -22.720080 179.553242 -5.979859 -0.504886 8.726233 15.003477 -1.031849 -29.746519 2.912655 1.679457 44.964833 0.751480 -9.564154 -12.171489 0.000000 0.000000 0.000000 -1.381365 -3.405124 7.386132 4.419214 9.464815 -14.082148 0.919565 6.372946 27.428508 8.315354 6.213869 -20.835644 0.000000 0.000000 0.000000 -1.069528 1.059211 -2.284528 1.885579 -0.503078 0.335635 -1.749901 -0.693884 7.822062 -0.010898 -0.063860 -0.042085 -2.221530 1.281987 8.330659 -3.249050 -4.159430 -3.969307 0.000000 0.000000 0.000000 -0.385826 1.506037 5.801740 14.775938 10.487502 5.098149 -45.117067 -6.401100 -41.499823 -177.670187 -77.340582 -164.544530 0.000000 0.000000 0.000000 -5.509871 3.413432 5.073009 24.061377 -0.676560 2.015069 32.384095 -17.879398 51.518638 -61.500089 86.151218 -61.207545 0.000000 0.000000 0.000000 
40.346436 79.118599 5.186723 -179.562422 -23.167623 179.560810 -5.830312 -0.633929 8.802078 14.839766 -1.183389 -29.963825 2.905323 1.578422 45.032434 0.750557 -9.563691 -12.130290 0.000000 0.000000 0.000000 -1.318210 -3.494113 7.496632 4.260509 9.153408 -14.241041 0.953684 5.864679 27.327667 8.527704 6.473027 -20.844119 0.000000 0.000000 0.000000 -1.098400 0.920801 -2.121652 1.794525 -0.361504 0.480200 -1.753216 -0.604911 7.853451 -0.026171 -0.059764 -0.059355 -2.190539 1.388687 8.323053 -3.714396 -4.025698 -3.700596 0.000000 0.000000 0.000000 -0.328312 1.637630 5.790505 13.371165 10.723388 5.348028 -45.625165 -5.305347 -40.986323 -177.333526 -77.380709 -164.068848 0.000000 0.000000 0.000000 -5.501326 3.659769 4.998973 24.888415 -1.326206 2.246059 32.204339 -19.039673 50.936402 -62.506579 86.335101 -62.110414 0.000000 0.000000 0.000000 
40.405308 79.116440 5.302061 -179.429274 -23.855363 179.506510 -5.612895 -0.815715 8.840671 14.765471 -1.385330 -30.171985 2.903566 1.490475 45.041689 0.681689 -9.578125 -11.992390 0.000000 0.000000 0.000000 -1.155522 -3.648016 7.598180 4.129396 8.802498 -14.380714 0.973919 5.465464 27.235757 8.646379 6.626388 -20.795414 0.000000 0.000000 0.000000 -0.991206 0.795564 -2.004367 1.738609 -0.182825 0.574171 -1.692312 -0.523642 7.892329 -0.058091 -0.051970 -0.085037 -2.216245 1.363791 8.443389 -4.361247 -3.884832 -3.337133 0.000000 0.000000 0.000000 -0.359502 1.744578 5.943942 12.584372 10.379340 5.279726 -45.682750 -5.276672 -40.138146 -177.215938 -77.443547 -163.488596 0.000000 0.000000 0.000000 -5.485755 3.687902 5.082356 25.429264 -1.590912 2.363615 31.845036 -19.357448 50.528285 -61.547408 86.432014 -61.095496 0.000000 0.000000 0.000000 
40.405167 79.138016 5.449590 -179.507494 -24.633004 179.507193 -5.643812 -0.985732 8.881955 14.724230 -1.575401 -30.379510 2.869619 1.470304 44.984719 0.520180 -9.647435 -11.800349 0.000000 0.000000 0.000000 -1.146395 -3.804036 7.704260 3.970888 8.482094 -14.521423 0.954672 5.182683 27.200247 8.693581 6.669700 -20.723962 0.000000 0.000000 0.000000 -0.956022 0.458772 -1.931821 1.521109 -0.004639 0.617136 -1.722553 -0.411132 7.923478 -0.011715 -0.004390 -0.083235 -2.294040 1.360465 8.551037 -5.205595 -3.750512 -3.016361 0.000000 0.000000 0.000000 -0.345090 1.738124 5.971751 12.117910 9.677300 5.247496 -45.355677 -6.326704 -38.871068 -177.774060 -77.584918 -162.314419 0.000000 0.000000 0.000000 -5.488167 3.760275 5.305547 25.667689 -1.279307 2.528050 31.280863 -18.944752 50.319820 -59.073282 86.574342 -58.574821 0.000000 0.000000 0.000000 
40.361195 79.159973 5.602496 -179.466977 -25.476040 179.487399 -5.555764 -1.177186 8.939019 14.636964 -1.843353 -30.630823 2.864010 1.462426 44.896804 0.367566 -9.699623 -11.617686 0.000000 0.000000 0.000000 -1.042562 -3.970002 7.827154 3.801708 8.157512 -14.714623 0.939432 4.967898 27.215384 8.704839 6.661128 -20.690970 0.000000 0.000000 0.000000 -0.812877 0.498677 -1.948987 1.318264 0.046421 0.624814 -1.737233 -0.433196 8.011065 0.002683 -0.041018 -0.091184 -2.353570 1.453115 8.683640 -6.038361 -3.494714 -2.779609 0.000000 0.000000 0.000000 -0.370266 1.859770 6.085083 12.162957 8.419934 5.109832 -44.727303 -8.128180 -37.325256 -177.933559 -77.908334 -161.596566 0.000000 0.000000 0.000000 -5.502191 3.809903 5.364004 25.824674 -0.907122 2.894673 30.707035 -18.298514 49.926654 -54.586991 86.671508 -54.104104 0.000000 0.000000 0.000000 
40.268879 79.169182 5.738093 -179.531113 -26.287259 179.488574 -5.515572 -1.296332 9.034405 14.477636 -2.141767 -30.880190 2.877212 1.460050 44.766101 0.209243 -9.761665 -11.506887 0.000000 0.000000 0.000000 -0.996671 -4.075732 7.979739 3.607939 7.827943 -14.942217 0.925006 4.778426 27.329653 8.708699 6.643314 -20.722340 0.000000 0.000000 0.000000 -0.709351 0.361117 -2.032874 1.070598 0.021307 0.597364 -1.784130 -0.415022 8.061512 0.003385 -0.023231 -0.028073 -2.463147 1.384971 8.870100 -6.974181 -3.410265 -2.468397 0.000000 0.000000 0.000000 -0.396693 1.881646 6.148924 12.333633 7.100590 4.987304 -44.221708 -10.159231 -35.254349 -177.929201 -78.090734 -161.057869 0.000000 0.000000 0.000000 -5.509188 3.826049 5.618000 25.785342 -0.157692 3.124857 30.122009 -17.344565 49.787899 -49.899214 86.653504 -49.439300 0.000000 0.000000 0.000000 
40.144791 79.162727 5.849472 -179.574826 -27.036696 179.498683 -5.416096 -1.331425 9.117289 14.244834 -2.478612 -31.115938 2.910124 1.472464 44.635928 0.059524 -9.826991 -11.476171 0.000000 0.000000 0.000000 -0.946040 -4.075971 8.153462 3.397162 7.512557 -15.199005 0.907317 4.551260 27.504707 8.710253 6.620347 -20.809437 0.000000 0.000000 0.000000 -0.583814 0.502743 -2.173210 0.848986 0.055205 0.570202 -1.870959 -0.418564 8.216478 -0.018669 -0.037276 -0.060423 -2.504880 1.549091 9.037323 -7.672579 -3.299793 -2.264160 0.000000 0.000000 0.000000 -0.442930 1.921375 6.356635 12.447573 5.750111 4.868251 -44.157935 -12.055771 -32.615434 -177.881772 -78.450282 -160.569578 0.000000 0.000000 0.000000 -5.520244 3.780971 5.731838 25.987070 0.277912 3.409443 29.422491 -16.587779 49.746819 -47.282060 86.692572 -46.844238 0.000000 0.000000 0.000000 
39.982590 79.148834 5.936505 -179.615069 -27.731166 179.512452 -5.315233 -1.263074 9.168278 14.009903 -2.800353 -31.291839 2.936684 1.472983 44.463818 -0.109534 -9.907674 -11.528897 0.000000 0.000000 0.000000 -0.899912 -3.954710 8.317428 3.212759 7.225548 -15.424785 0.877854 4.300057 27.705035 8.699020 6.570991 -20.932165 0.000000 0.000000 0.000000 -0.443757 0.476760 -2.299465 0.702307 -0.125596 0.561117 -1.934879 -0.341914 8.341131 -0.015211 0.040768 -0.064919 -2.601572 1.569038 9.246322 -8.306748 -3.060814 -2.042523 0.000000 0.000000 0.000000 -0.530466 1.957809 6.493501 12.299303 4.823055 4.871444 -44.854873 -13.183354 -29.740102 -177.434094 -78.651718 -160.523625 0.000000 0.000000 0.000000 -5.547518 3.869845 5.916385 26.221993 0.687297 3.603425 28.832957 -15.669548 49.774075 -43.218609 86.639488 -42.805926 0.000000 0.000000 0.000000 
